<svg width="26" height="26" viewBox="0 0 26 26" fill="none" xmlns="http://www.w3.org/2000/svg">
<g clip-path="url(#clip0_6_2663)">
<path d="M25.2387 9.78683C24.6212 9.07508 23.7263 8.66667 22.7827 8.66667H22.6896C22.149 3.79817 18.0107 0 13.0002 0C7.98982 0 3.85149 3.79817 3.3109 8.66667H3.25024C2.30774 8.66667 1.41399 9.07508 0.795403 9.78683C0.176819 10.4986 -0.100514 11.4422 0.032736 12.3771L1.18215 20.4198C1.63715 23.6015 4.40399 26 7.61715 26H18.4169C21.6301 26 24.3969 23.6004 24.8519 20.4198L26.0013 12.3771C26.1346 11.4433 25.8562 10.4997 25.2387 9.78683ZM13.0002 2.16667C16.8136 2.16667 19.978 4.99742 20.5056 8.66667H5.4949C6.02249 4.99742 9.1869 2.16667 13.0002 2.16667ZM23.8563 12.0705L22.7069 20.1132C22.4036 22.2343 20.5597 23.8344 18.4169 23.8344H7.61715C5.47324 23.8344 3.6294 22.2343 3.32715 20.1132L2.17774 12.0705C2.13224 11.7553 2.22324 11.4487 2.43124 11.2071C2.64032 10.9655 2.93065 10.8333 3.24915 10.8333H22.7827C23.1012 10.8333 23.3916 10.9655 23.6017 11.2071C23.8097 11.4487 23.9018 11.7553 23.8563 12.0705ZM14.0836 14.0833V20.5833C14.0836 21.1824 13.5993 21.6667 13.0002 21.6667C12.4012 21.6667 11.9169 21.1824 11.9169 20.5833V14.0833C11.9169 13.4843 12.4012 13 13.0002 13C13.5993 13 14.0836 13.4843 14.0836 14.0833ZM19.5002 14.0833V20.5833C19.5002 21.1824 19.016 21.6667 18.4169 21.6667C17.8178 21.6667 17.3336 21.1824 17.3336 20.5833V14.0833C17.3336 13.4843 17.8178 13 18.4169 13C19.016 13 19.5002 13.4843 19.5002 14.0833ZM8.6669 14.0833V20.5833C8.6669 21.1824 8.18265 21.6667 7.58357 21.6667C6.98449 21.6667 6.50024 21.1824 6.50024 20.5833V14.0833C6.50024 13.4843 6.98449 13 7.58357 13C8.18265 13 8.6669 13.4843 8.6669 14.0833Z" fill="currentColor"/>
</g>
<defs>
<clipPath id="clip0_6_2663">
<rect width="26" height="26" fill="white"/>
</clipPath>
</defs>
</svg>
