<svg width="24" height="25" viewBox="0 0 24 25" fill="none" xmlns="http://www.w3.org/2000/svg">
<path fill-rule="evenodd" clip-rule="evenodd" d="M10.0593 24.5C10.0928 24.5007 10.1264 24.501 10.1601 24.501C10.1937 24.501 10.2273 24.5007 10.2608 24.5H10.0593ZM22.1601 4.5C22.1601 6.706 20.3661 8.5 18.1601 8.5C15.9541 8.5 14.1601 6.706 14.1601 4.5C14.1601 2.294 15.9541 0.5 18.1601 0.5C20.3661 0.5 22.1601 2.294 22.1601 4.5ZM20.1601 4.5C20.1601 3.397 19.2631 2.5 18.1601 2.5C17.0571 2.5 16.1601 3.397 16.1601 4.5C16.1601 5.603 17.0571 6.5 18.1601 6.5C19.2631 6.5 20.1601 5.603 20.1601 4.5Z" fill="#04BF8A"/>
<path fill-rule="evenodd" clip-rule="evenodd" d="M23.0594 4.00788C23.0594 4.00525 23.0594 4.00263 23.0594 4C23.0594 3.99737 23.0594 3.99475 23.0594 3.99212V4.00788ZM19.7254 9.556C20.2524 9.432 20.8004 9.763 20.9274 10.301V10.302L21.9734 14.75C22.3174 15.978 22.0614 17.307 21.2604 18.355C20.4604 19.401 19.2434 20.001 17.9234 20.001H15.9584C15.4934 22.28 13.4744 24.001 11.0594 24.001C8.64437 24.001 6.62536 22.28 6.16036 20.001H4.19436C2.91636 20.001 1.72436 19.432 0.925365 18.441C0.123365 17.447 -0.176635 16.164 0.101365 14.92L2.19536 7.144C3.13136 2.955 6.83537 0 11.1924 0C11.7424 0 12.2914 0.049 12.8254 0.146C13.3684 0.245 13.7304 0.765 13.6314 1.309C13.5324 1.851 13.0194 2.213 12.4684 2.115C12.0524 2.039 11.6234 2.001 11.1934 2.001C7.77936 2.001 4.87736 4.312 4.13736 7.622L2.04336 15.399C1.90936 16.002 2.06536 16.668 2.48236 17.185C2.90036 17.703 3.52436 18 4.19436 18H17.9244C18.6164 18 19.2534 17.687 19.6724 17.14C20.0884 16.595 20.2214 15.905 20.0374 15.247L18.9804 10.758C18.8544 10.221 19.1874 9.683 19.7254 9.556ZM8.24337 20C8.65737 21.161 9.75737 22 11.0594 22H11.0584C12.3604 22 13.4604 21.161 13.8744 20H8.24337Z" fill="#555555"/>
</svg>
