<svg width="24" height="24" viewBox="0 0 24 24" fill="none" xmlns="http://www.w3.org/2000/svg">
<g clip-path="url(#clip0_970_2090)">
<path d="M23 15H22.333C22.083 15 21.835 15.019 21.588 15.057L14.542 9.77302L16.23 8.15702C16.629 7.77502 16.643 7.14102 16.261 6.74302C15.878 6.34402 15.244 6.33102 14.847 6.71202L10.674 10.707C10.466 10.915 10.183 11.022 9.886 10.997C9.588 10.973 9.326 10.822 9.147 10.572C8.873 10.192 8.957 9.59702 9.315 9.23802L14.018 4.80902C14.909 3.97202 16.302 3.76702 17.392 4.31402L19.708 5.47202C20.398 5.81702 21.172 5.99902 21.943 5.99902H22.999C23.552 5.99902 23.999 5.55202 23.999 4.99902C23.999 4.44602 23.552 3.99902 22.999 3.99902H21.943C21.48 3.99902 21.015 3.89002 20.601 3.68302L18.287 2.52502C16.463 1.61202 14.134 1.95102 12.646 3.35302L12.028 3.93502L11.328 3.29702C10.409 2.46002 9.219 1.99902 7.938 1.99902C7.167 1.99902 6.398 2.18102 5.711 2.52402L3.397 3.68202C2.982 3.88902 2.517 3.99802 2.054 3.99802H1C0.447001 3.99802 5.4948e-07 4.44502 5.4948e-07 4.99802C5.4948e-07 5.55102 0.447001 5.99802 1 5.99802H2.056C2.827 5.99802 3.601 5.81502 4.292 5.47102L6.608 4.31302C7.63 3.79902 9.066 3.93802 9.982 4.77502L10.569 5.31002L7.923 7.80202C6.85 8.87402 6.679 10.569 7.525 11.74C8.045 12.463 9.078 12.999 9.969 12.999C10.762 12.999 11.523 12.687 12.073 12.136L13.079 11.173L19.425 15.932C19.394 15.954 13.227 20.578 13.227 20.578C12.504 21.14 11.495 21.14 10.757 20.567L4.666 15.999C3.807 15.354 2.741 14.999 1.666 14.999H0.999001C0.446001 14.999 -0.000999451 15.446 -0.000999451 15.999C-0.000999451 16.552 0.446001 16.999 0.999001 16.999H1.666C2.311 16.999 2.95 17.212 3.466 17.599L9.543 22.157C10.268 22.721 11.137 23.003 12.004 23.003C12.866 23.003 13.727 22.724 14.441 22.168L20.534 17.6C21.049 17.213 21.688 17 22.333 17H23C23.553 17 24 16.553 24 16C24 15.447 23.553 15 23 15Z" fill="currentColor"/>
</g>
<defs>
<clipPath id="clip0_970_2090">
<rect width="24" height="24" fill="white"/>
</clipPath>
</defs>
</svg>
