<svg width="24" height="24" viewBox="0 0 24 24" fill="none" xmlns="http://www.w3.org/2000/svg">
<g clip-path="url(#clip0_954_1791)">
<path d="M22.372 16H23.038C23.591 16 24.038 15.552 24.038 15C24.038 14.448 23.591 14 23.038 14H22.372C22.078 14 21.786 14.032 21.498 14.084L15.402 7.98801L16.27 7.15701C16.669 6.77501 16.683 6.14201 16.301 5.74301C15.918 5.34401 15.284 5.33101 14.887 5.71201L10.922 9.50701L9.508 8.09301L14.058 3.81001C14.947 2.97301 16.335 2.76701 17.432 3.31401L19.746 4.47101C20.436 4.81701 21.21 4.99901 21.982 4.99901H23.038C23.591 4.99901 24.038 4.55101 24.038 3.99901C24.038 3.44701 23.591 2.99901 23.038 2.99901H21.982C21.518 2.99901 21.055 2.89001 20.641 2.68201L18.325 1.52401C16.495 0.611006 14.173 0.953006 12.686 2.35301L12.068 2.93501L11.368 2.29701C10.448 1.46001 9.258 0.999006 7.977 0.999006C7.209 0.999006 6.44 1.18101 5.75 1.52401L3.876 2.46101L1.707 0.293006C1.316 -0.0979942 0.683998 -0.0979942 0.292998 0.293006C-0.0980018 0.684006 -0.0980018 1.31601 0.292998 1.70701L22.293 23.707C22.488 23.902 22.744 24 23 24C23.256 24 23.512 23.902 23.707 23.707C24.098 23.316 24.098 22.684 23.707 22.293L19.11 17.696L20.571 16.6C21.088 16.213 21.726 16 22.372 16ZM6.645 3.31401C7.675 2.80101 9.104 2.94001 10.022 3.77601L10.608 4.31001L8.093 6.67801L5.368 3.95301L6.645 3.31401ZM17.682 16.267L12.336 10.921L13.957 9.37001L19.504 14.917C19.462 14.947 17.683 16.267 17.683 16.267H17.682ZM15.171 19.4C15.503 19.842 15.413 20.468 14.971 20.8L14.48 21.168C13.766 21.723 12.906 22.001 12.043 22.001C11.18 22.001 10.308 21.72 9.583 21.157L3.506 16.599C2.989 16.212 2.351 15.999 1.705 15.999H1.038C0.484998 15.999 0.0379982 15.551 0.0379982 14.999C0.0379982 14.447 0.484998 13.999 1.038 13.999H1.705C2.78 13.999 3.846 14.354 4.705 14.999L10.796 19.568C11.534 20.14 12.543 20.141 13.266 19.578L13.772 19.199C14.214 18.866 14.841 18.958 15.171 19.4Z" fill="currentColor"/>
</g>
<defs>
<clipPath id="clip0_954_1791">
<rect width="24" height="24" fill="white"/>
</clipPath>
</defs>
</svg>
