<svg width="24" height="24" viewBox="0 0 24 24" fill="none" xmlns="http://www.w3.org/2000/svg">
<g clip-path="url(#clip0_963_2084)">
<path d="M19 22H5C2.243 22 0 19.757 0 17V7C0 4.243 2.243 2 5 2H19C21.757 2 24 4.243 24 7V17C24 19.757 21.757 22 19 22ZM5 4C3.346 4 2 5.346 2 7V17C2 18.654 3.346 20 5 20H19C20.654 20 22 18.654 22 17V7C22 5.346 20.654 4 19 4H5ZM6 17V7C6 6.448 5.553 6 5 6C4.447 6 4 6.448 4 7V17C4 17.553 4.447 18 5 18C5.553 18 6 17.553 6 17ZM10 17V7C10 6.448 9.553 6 9 6C8.447 6 8 6.448 8 7V17C8 17.553 8.447 18 9 18C9.553 18 10 17.553 10 17ZM20 17V7C20 6.448 19.553 6 19 6C18.447 6 18 6.448 18 7V17C18 17.553 18.447 18 19 18C19.553 18 20 17.553 20 17ZM14 16.5V7.5C14 6.671 13.328 6 12.5 6C11.672 6 11 6.671 11 7.5V16.5C11 17.328 11.672 18 12.5 18C13.328 18 14 17.328 14 16.5ZM15.5 18C15.224 18 15 17.776 15 17.5V6.5C15 6.224 15.224 6 15.5 6C15.776 6 16 6.224 16 6.5V17.5C16 17.776 15.776 18 15.5 18Z" fill="currentColor"/>
</g>
<defs>
<clipPath id="clip0_963_2084">
<rect width="24" height="24" fill="white"/>
</clipPath>
</defs>
</svg>
