<svg width="16" height="16" viewBox="0 0 16 16" fill="none" xmlns="http://www.w3.org/2000/svg">
<g clip-path="url(#clip0_345_3537)">
<path d="M12.6666 1.33339H6.63731C6.12945 1.33182 5.62805 1.44711 5.17188 1.67034C4.71571 1.89357 4.31702 2.21875 4.00664 2.62072L0.139974 7.59072C0.048938 7.70775 -0.000488281 7.85179 -0.000488281 8.00006C-0.000488281 8.14832 0.048938 8.29236 0.139974 8.40939L4.00664 13.3794C4.31702 13.7814 4.71571 14.1065 5.17188 14.3298C5.62805 14.553 6.12945 14.6683 6.63731 14.6667H12.6666C13.5504 14.6657 14.3976 14.3141 15.0225 13.6892C15.6474 13.0644 15.9989 12.2171 16 11.3334V4.66672C15.9989 3.78299 15.6474 2.93576 15.0225 2.31087C14.3976 1.68598 13.5504 1.33445 12.6666 1.33339ZM14.6666 11.3334C14.6666 11.8638 14.4559 12.3725 14.0809 12.7476C13.7058 13.1227 13.1971 13.3334 12.6666 13.3334H6.63731C6.33258 13.3344 6.03169 13.2654 5.75794 13.1315C5.48419 12.9976 5.24492 12.8026 5.05864 12.5614L1.51131 8.00006L5.05864 3.43872C5.24492 3.19755 5.48419 3.00248 5.75794 2.86861C6.03169 2.73474 6.33258 2.66566 6.63731 2.66672H12.6666C13.1971 2.66672 13.7058 2.87744 14.0809 3.25251C14.4559 3.62758 14.6666 4.13629 14.6666 4.66672V11.3334ZM11.4713 6.80472L10.276 8.00006L11.4713 9.19539C11.535 9.25689 11.5858 9.33045 11.6207 9.41179C11.6556 9.49312 11.674 9.5806 11.6748 9.66912C11.6756 9.75764 11.6587 9.84543 11.6252 9.92736C11.5917 10.0093 11.5422 10.0837 11.4796 10.1463C11.417 10.2089 11.3425 10.2584 11.2606 10.2919C11.1787 10.3255 11.0909 10.3423 11.0024 10.3416C10.9139 10.3408 10.8264 10.3224 10.745 10.2875C10.6637 10.2525 10.5901 10.2017 10.5286 10.1381L9.33331 8.94272L8.13797 10.1381C8.01224 10.2595 7.84384 10.3267 7.66904 10.3252C7.49424 10.3237 7.32703 10.2535 7.20343 10.1299C7.07982 10.0063 7.00971 9.83912 7.00819 9.66432C7.00667 9.48953 7.07387 9.32113 7.19531 9.19539L8.39064 8.00006L7.19531 6.80472C7.07387 6.67899 7.00667 6.51059 7.00819 6.33579C7.00971 6.16099 7.07982 5.99378 7.20343 5.87018C7.32703 5.74657 7.49424 5.67646 7.66904 5.67494C7.84384 5.67342 8.01224 5.74062 8.13797 5.86206L9.33331 7.05739L10.5286 5.86206C10.6544 5.74062 10.8228 5.67342 10.9976 5.67494C11.1724 5.67646 11.3396 5.74657 11.4632 5.87018C11.5868 5.99378 11.6569 6.16099 11.6584 6.33579C11.6599 6.51059 11.5927 6.67899 11.4713 6.80472Z" fill="currentColor"/>
</g>
<defs>
<clipPath id="clip0_345_3537">
<rect width="16" height="16" fill="white"/>
</clipPath>
</defs>
</svg>
