<svg width="24" height="24" viewBox="0 0 24 24" fill="none" xmlns="http://www.w3.org/2000/svg">
<path d="M14.1205 14.1226L18.7106 9.53264C18.8968 9.34528 19.0013 9.09183 19.0013 8.82764C19.0013 8.56346 18.8968 8.31 18.7106 8.12264C18.6176 8.02891 18.507 7.95452 18.3851 7.90375C18.2633 7.85298 18.1326 7.82684 18.0006 7.82684C17.8685 7.82684 17.7378 7.85298 17.616 7.90375C17.4941 7.95452 17.3835 8.02891 17.2906 8.12264L12.7105 12.7226C12.6176 12.8164 12.507 12.8908 12.3851 12.9415C12.2633 12.9923 12.1326 13.0184 12.0005 13.0184C11.8685 13.0184 11.7378 12.9923 11.616 12.9415C11.4941 12.8908 11.3835 12.8164 11.2905 12.7226L6.71055 8.12264C6.52357 7.93434 6.26945 7.82802 6.00408 7.82709C5.73872 7.82615 5.48385 7.93066 5.29555 8.11764C5.10724 8.30462 5.00093 8.55874 4.99999 8.82411C4.99905 9.08947 5.10357 9.34434 5.29055 9.53264L9.88055 14.1226C10.4431 14.6844 11.2055 15 12.0005 15C12.7956 15 13.558 14.6844 14.1205 14.1226Z" fill="#333333"/>
</svg>
