<svg width="60" height="60" viewBox="0 0 60 60" fill="none" xmlns="http://www.w3.org/2000/svg">
<g clip-path="url(#clip0_1265_11251)">
<path d="M32.5 51.25V51.2825C32.5 52.6625 31.38 53.7825 30 53.7825C28.62 53.7825 27.5 52.6625 27.5 51.2825V51.25C27.5 49.87 28.62 48.75 30 48.75C31.38 48.75 32.5 49.87 32.5 51.25ZM31.98 25.2575C29.655 24.6525 27.265 25.1325 25.4125 26.5675C23.5625 28 22.5 30.1625 22.5 32.5025C22.5 33.1925 23.06 33.7525 23.75 33.7525C24.44 33.7525 25 33.1925 25 32.5025C25 30.9425 25.7075 29.5025 26.9425 28.545C28.18 27.5875 29.7875 27.275 31.355 27.6775C33.03 28.11 34.3925 29.4725 34.8275 31.15C35.455 33.585 34.335 36.0075 32.1 37.04C30.0675 37.98 28.7525 40.1525 28.7525 42.57V43.75C28.7525 44.44 29.3125 45 30.0025 45C30.6925 45 31.2525 44.44 31.2525 43.75V42.57C31.2525 41.1225 31.9975 39.8425 33.15 39.3075C36.445 37.7825 38.1675 34.09 37.2475 30.5225C36.5925 27.9775 34.525 25.91 31.9825 25.255L31.98 25.2575ZM55 24.965V48.7525C55 54.955 49.9525 60.0025 43.75 60.0025H16.25C10.0475 60.0025 5 54.955 5 48.7525V11.25C5 5.0475 10.0475 0 16.25 0H30.0375C34.3775 0 38.46 1.69 41.5275 4.76L50.24 13.4725C53.31 16.5425 55 20.6225 55 24.9625V24.965ZM39.76 6.5275C38.385 5.1525 36.76 4.13 35 3.45V16.25C35 18.3175 36.6825 20 38.75 20H51.5525C50.87 18.24 49.8475 16.615 48.475 15.24L39.76 6.5275ZM52.5 24.965C52.5 24.1275 52.405 23.3075 52.26 22.5025H38.75C35.305 22.5025 32.5 19.6975 32.5 16.2525V2.74C31.6925 2.595 30.8725 2.5 30.0375 2.5H16.25C11.425 2.5 7.5 6.425 7.5 11.25V48.75C7.5 53.575 11.425 57.5 16.25 57.5H43.75C48.575 57.5 52.5 53.575 52.5 48.75V24.9625V24.965Z" fill="#DDDDDD"/>
</g>
<defs>
<clipPath id="clip0_1265_11251">
<rect width="60" height="60" fill="white"/>
</clipPath>
</defs>
</svg>
