<svg width="60" height="60" viewBox="0 0 60 60" fill="none" xmlns="http://www.w3.org/2000/svg">
<g clip-path="url(#clip0_680_3159)">
<path d="M37.3825 16.165C37.9425 19.3425 36.43 22.52 33.6175 24.0725C32.5 24.6875 32.5 24.8675 32.5 25C32.5 26.3825 31.3825 27.5 30 27.5C28.6175 27.5 27.5 26.3825 27.5 25C27.5 21.73 30.095 20.3025 31.2025 19.6925C31.925 19.2925 32.69 18.355 32.4575 17.03C32.285 16.0475 31.4525 15.215 30.475 15.045C29.7 14.9 28.9675 15.0975 28.395 15.585C27.825 16.06 27.5 16.76 27.5 17.5025C27.5 18.885 26.3825 20.0025 25 20.0025C23.6175 20.0025 22.5 18.885 22.5 17.5025C22.5 15.28 23.4775 13.185 25.18 11.755C26.8825 10.325 29.125 9.71752 31.34 10.1225C34.365 10.65 36.8525 13.135 37.3825 16.165ZM30 30C27.93 30 26.25 31.68 26.25 33.75C26.25 35.82 27.93 37.5 30 37.5C32.07 37.5 33.75 35.82 33.75 33.75C33.75 31.68 32.07 30 30 30ZM52.5 22.5C52.5 28.9725 49.705 35.135 44.83 39.41C41.715 42.14 40 45.69 40 49.405V50.775C40 55.8625 35.8625 60 30.775 60H29.2275C24.14 60 20.0025 55.8625 20.0025 50.775V50.375C20.0025 46.21 18.11 42.155 14.6725 38.96C9.30002 33.9575 6.75502 26.8875 7.69002 19.555C8.97502 9.45252 17.26 1.29252 27.39 0.147518C33.7925 -0.564982 40.215 1.45502 44.985 5.72002C49.76 9.98502 52.5 16.1025 52.5 22.5025V22.5ZM35 50.775V50H24.995C24.995 50.125 25 50.25 25 50.3725V50.7725C25 53.1025 26.8975 54.9975 29.225 54.9975H30.7725C33.1025 54.9975 34.9975 53.1 34.9975 50.7725L35 50.775ZM47.5 22.5C47.5 17.5225 45.3675 12.7625 41.655 9.44502C38.405 6.54252 34.3325 5.00002 30.02 5.00002C29.3375 5.00002 28.645 5.03752 27.9525 5.11752C20.085 6.00502 13.6475 12.345 12.65 20.185C11.92 25.8975 13.9 31.405 18.0775 35.2975C21.08 38.0875 23.1725 41.4225 24.2225 45H35.5925C36.5375 41.4975 38.59 38.2275 41.535 35.65C45.3275 32.325 47.5 27.5325 47.5 22.5Z" fill="#BBBBBB"/>
</g>
<defs>
<clipPath id="clip0_680_3159">
<rect width="60" height="60" fill="white"/>
</clipPath>
</defs>
</svg>
