<svg width="18" height="18" viewBox="0 0 18 18" fill="none" xmlns="http://www.w3.org/2000/svg">
<path d="M17.7803 16.7197L15.1253 14.0648C15.5183 13.4715 15.75 12.7627 15.75 12C15.75 9.93225 14.0678 8.25 12 8.25C9.93227 8.25 8.25002 9.93225 8.25002 12C8.25002 14.0677 9.93227 15.75 12 15.75C12.7628 15.75 13.4715 15.5182 14.0648 15.1252L16.7198 17.7803C16.866 17.9265 17.058 18 17.25 18C17.442 18 17.634 17.9265 17.7803 17.7803C18.0735 17.487 18.0735 17.013 17.7803 16.7197ZM9.75002 12C9.75002 10.7595 10.7595 9.75 12 9.75C13.2405 9.75 14.25 10.7595 14.25 12C14.25 13.2405 13.2405 14.25 12 14.25C10.7595 14.25 9.75002 13.2405 9.75002 12ZM11.25 4.5C11.25 2.01825 9.23177 0 6.75002 0C4.26827 0 2.25002 2.01825 2.25002 4.5C2.25002 6.98175 4.26827 9 6.75002 9C9.23177 9 11.25 6.98175 11.25 4.5ZM6.75002 7.5C5.09552 7.5 3.75002 6.1545 3.75002 4.5C3.75002 2.8455 5.09552 1.5 6.75002 1.5C8.40452 1.5 9.75002 2.8455 9.75002 4.5C9.75002 6.1545 8.40452 7.5 6.75002 7.5ZM6.74402 11.2035C6.79502 11.6145 6.50402 11.9888 6.09227 12.0405C3.47402 12.3675 1.49927 14.6062 1.49927 17.25C1.49927 17.664 1.16327 18 0.749268 18C0.335268 18 -0.000732422 17.664 -0.000732422 17.25C-0.000732422 13.8517 2.53877 10.9725 5.90627 10.5525C6.31277 10.5007 6.69152 10.7925 6.74327 11.2043L6.74402 11.2035Z" fill="currentColor"/>
</svg>
