<svg width="25" height="25" viewBox="0 0 25 25" fill="none" xmlns="http://www.w3.org/2000/svg">
<g clip-path="url(#clip0_438_1163)">
<path d="M9.94067 14.7495H15.9407C16.2059 14.7495 16.4602 14.6442 16.6478 14.4566C16.8353 14.2691 16.9407 14.0147 16.9407 13.7495C16.9407 13.4843 16.8353 13.2299 16.6478 13.0424C16.4602 12.8549 16.2059 12.7495 15.9407 12.7495H9.94067C9.67546 12.7495 9.4211 12.8549 9.23357 13.0424C9.04603 13.2299 8.94067 13.4843 8.94067 13.7495C8.94067 14.0147 9.04603 14.2691 9.23357 14.4566C9.4211 14.6442 9.67546 14.7495 9.94067 14.7495Z" fill="#555555"/>
<path d="M19.9407 0.749512H5.94067C4.61508 0.7511 3.34423 1.27839 2.40689 2.21573C1.46956 3.15307 0.942262 4.42392 0.940674 5.74951L0.940674 6.74951C0.940965 7.17125 1.03017 7.5882 1.20248 7.97313C1.37479 8.35807 1.62633 8.70235 1.94067 8.98351V19.7495C1.94226 21.0751 2.46956 22.346 3.40689 23.2833C4.34423 24.2206 5.61508 24.7479 6.94067 24.7495H18.9407C20.2663 24.7479 21.5371 24.2206 22.4745 23.2833C23.4118 22.346 23.9391 21.0751 23.9407 19.7495V8.98351C24.255 8.70235 24.5066 8.35807 24.6789 7.97313C24.8512 7.5882 24.9404 7.17125 24.9407 6.74951V5.74951C24.9391 4.42392 24.4118 3.15307 23.4745 2.21573C22.5371 1.27839 21.2663 0.7511 19.9407 0.749512ZM2.94067 5.74951C2.94067 4.95386 3.25674 4.1908 3.81935 3.62819C4.38196 3.06558 5.14502 2.74951 5.94067 2.74951H19.9407C20.7363 2.74951 21.4994 3.06558 22.062 3.62819C22.6246 4.1908 22.9407 4.95386 22.9407 5.74951V6.74951C22.9407 7.01473 22.8353 7.26908 22.6478 7.45662C22.4602 7.64415 22.2059 7.74951 21.9407 7.74951H3.94067C3.67546 7.74951 3.4211 7.64415 3.23357 7.45662C3.04603 7.26908 2.94067 7.01473 2.94067 6.74951V5.74951ZM21.9407 19.7495C21.9407 20.5452 21.6246 21.3082 21.062 21.8708C20.4994 22.4334 19.7363 22.7495 18.9407 22.7495H6.94067C6.14502 22.7495 5.38196 22.4334 4.81935 21.8708C4.25674 21.3082 3.94067 20.5452 3.94067 19.7495V9.74951H21.9407V19.7495Z" fill="#555555"/>
</g>
<defs>
<clipPath id="clip0_438_1163">
<rect width="24" height="24" fill="white" transform="translate(0.940674 0.749512)"/>
</clipPath>
</defs>
</svg>
