<svg width="24" height="24" viewBox="0 0 24 24" fill="none" xmlns="http://www.w3.org/2000/svg">
<path d="M8.87742 14.1205L13.4674 18.7106C13.6548 18.8968 13.9082 19.0013 14.1724 19.0013C14.4366 19.0013 14.6901 18.8968 14.8774 18.7106C14.9711 18.6176 15.0455 18.507 15.0963 18.3851C15.1471 18.2633 15.1732 18.1326 15.1732 18.0006C15.1732 17.8685 15.1471 17.7378 15.0963 17.616C15.0455 17.4941 14.9711 17.3835 14.8774 17.2905L10.2774 12.7105C10.1837 12.6176 10.1093 12.507 10.0585 12.3851C10.0078 12.2633 9.98162 12.1326 9.98162 12.0005C9.98162 11.8685 10.0078 11.7378 10.0585 11.616C10.1093 11.4941 10.1837 11.3835 10.2774 11.2905L14.8774 6.71055C15.0657 6.52357 15.172 6.26945 15.173 6.00408C15.1739 5.73872 15.0694 5.48385 14.8824 5.29555C14.6954 5.10725 14.4413 5.00093 14.176 4.99999C13.9106 4.99905 13.6557 5.10357 13.4674 5.29055L8.87742 9.88055C8.31562 10.4431 8.00006 11.2055 8.00006 12.0005C8.00006 12.7956 8.31562 13.558 8.87742 14.1205Z" fill="#555555"/>
</svg>
