<svg width="40" height="40" viewBox="0 0 40 40" fill="none" xmlns="http://www.w3.org/2000/svg">
<g clip-path="url(#clip0_2160_3170)">
<path d="M20 40C17.6133 40 15.36 39.0817 13.655 37.4133L7.08329 31.3417C3.57329 27.8333 1.66663 23.23 1.66663 18.3333C1.66663 13.4367 3.57329 8.83167 7.03663 5.37C10.5 1.90833 15.1033 0 20 0C24.8966 0 29.5 1.90667 32.9633 5.37C36.4266 8.83167 38.3333 13.435 38.3333 18.3333C38.3333 23.2317 36.4266 27.8333 32.9633 31.2967L26.31 37.445C24.64 39.08 22.3866 40 20 40ZM20 3.33333C15.9933 3.33333 12.2266 4.89333 9.39329 7.72667C6.55996 10.56 4.99996 14.325 4.99996 18.3333C4.99996 22.3417 6.55996 26.1067 9.39329 28.94L15.9533 34.9983C18.18 37.175 21.8566 37.1417 24.015 35.0317L30.655 28.895C33.4416 26.1067 35 22.34 35 18.335C35 14.33 33.4383 10.5617 30.6066 7.72833C27.7733 4.895 24.005 3.33333 20 3.33333ZM19.8433 24.0317L29.4983 14.52C30.155 13.8733 30.16 12.8183 29.515 12.1633C28.87 11.5083 27.815 11.5 27.1583 12.145L17.4766 21.6467L12.8216 17.135C12.1616 16.4967 11.1066 16.51 10.465 17.1717C9.82329 17.8317 9.83996 18.8867 10.5 19.5283L15.1366 24.0217C15.7883 24.6733 16.6416 24.9967 17.4966 24.9967C18.3516 24.9967 19.1983 24.675 19.8416 24.03L19.8433 24.0317Z" fill="black"/>
</g>
<defs>
<clipPath id="clip0_2160_3170">
<rect width="40" height="40" fill="white"/>
</clipPath>
</defs>
</svg>
