<svg width="24" height="24" viewBox="0 0 24 24" fill="none" xmlns="http://www.w3.org/2000/svg">
<g clip-path="url(#clip0_92_1126)">
<path d="M24 18C24 21.42 18.841 24 12 24C5.159 24 0 21.42 0 18C0 15.374 2.999 13.211 7.825 12.355C8.378 12.262 8.888 12.622 8.984 13.166C9.081 13.709 8.718 14.228 8.174 14.325C4.596 14.959 1.999 16.504 1.999 18C1.999 19.892 6.105 22 11.999 22C17.893 22 21.999 19.892 21.999 18C21.999 16.504 19.402 14.959 15.824 14.325C15.28 14.228 14.918 13.709 15.014 13.166C15.11 12.622 15.62 12.259 16.173 12.355C20.999 13.21 23.998 15.373 23.998 18H24ZM11 18V2.692C11 1.305 11.732 0.643999 12.17 0.373999C12.897 -0.0750007 13.896 -0.123001 14.657 0.256999C14.696 0.275999 19.958 3.819 19.958 3.819C20.687 4.357 21.06 5.175 20.992 6.033C20.926 6.89 20.43 7.64 19.669 8.039L13 11.31V17.999C13 18.551 12.553 18.999 12 18.999C11.447 18.999 11 18.552 11 18ZM13 9.083L18.765 6.255C18.948 6.159 18.991 5.977 18.998 5.878C19.006 5.778 18.991 5.59 18.805 5.452L13.726 2.03C13.671 2.011 13.599 1.999 13.522 1.999C13.42 1.999 13.31 2.02 13.222 2.075C13.075 2.166 13 2.373 13 2.692V9.083Z" fill="currentColor"/>
</g>
<defs>
<clipPath id="clip0_92_1126">
<rect width="24" height="24" fill="white"/>
</clipPath>
</defs>
</svg>
