<svg width="40" height="40" viewBox="0 0 40 40" fill="none" xmlns="http://www.w3.org/2000/svg">
<path d="M13.8948 22.2038L17.7054 18.3931L13.8948 14.5825C13.2346 13.9449 13.2163 12.8928 13.8539 12.2327C14.4915 11.5725 15.5436 11.5541 16.2038 12.1918C16.2176 12.2052 16.2313 12.2188 16.2446 12.2327L20.0553 16.0433L23.8659 12.2327C24.5035 11.5725 25.5556 11.5542 26.2157 12.1919C26.8759 12.8295 26.8942 13.8816 26.2565 14.5417C26.2432 14.5555 26.2296 14.5691 26.2157 14.5825L22.4051 18.3931L26.2157 22.2038C26.8759 22.8414 26.8942 23.8934 26.2565 24.5536C25.6189 25.2137 24.5668 25.232 23.9067 24.5944C23.8928 24.581 23.8792 24.5674 23.8659 24.5536L20.0553 20.743L16.2446 24.5536C15.5845 25.1912 14.5324 25.173 13.8948 24.5128C13.2728 23.8688 13.2728 22.8478 13.8948 22.2038ZM7.17596 31.3638C-0.0484906 24.3116 -0.188178 12.738 6.86409 5.51352C13.9164 -1.71102 25.4899 -1.85062 32.7144 5.20164C32.8042 5.2893 32.8931 5.37789 32.981 5.46734C40.1196 12.6062 40.1196 24.1802 32.981 31.319L26.347 37.4495C22.8267 40.8589 17.2317 40.8449 13.7286 37.418L7.17596 31.3638ZM5.0987 18.3932C5.08784 22.3621 6.66526 26.1704 9.47932 28.9691L16.0187 35.0116C18.2638 37.1571 21.7952 37.171 24.0571 35.0431L30.6778 28.9242C36.5064 23.0704 36.486 13.6 30.6321 7.77148C24.7783 1.94297 15.3079 1.96336 9.4794 7.81719C6.66518 10.6159 5.08784 14.4243 5.0987 18.3932Z" fill="currentColor"/>
</svg>
