<svg width="20" height="16" viewBox="0 0 20 16" fill="none" xmlns="http://www.w3.org/2000/svg">
<rect x="0.75" y="0.75" width="18.5" height="14.5" rx="2.25" stroke="#333333" stroke-width="1.5"/>
<path fill-rule="evenodd" clip-rule="evenodd" d="M10.1667 8C9.67221 8 9.18886 7.85338 8.77774 7.57867C8.36662 7.30397 8.04619 6.91352 7.85697 6.45671C7.66775 5.99989 7.61824 5.49723 7.7147 5.01227C7.81117 4.52732 8.04927 4.08187 8.3989 3.73223C8.74853 3.3826 9.19399 3.1445 9.67894 3.04804C10.1639 2.95157 10.6666 3.00108 11.1234 3.1903C11.5802 3.37952 11.9706 3.69995 12.2453 4.11108C12.52 4.5222 12.6667 5.00555 12.6667 5.5C12.6667 6.16304 12.4033 6.79893 11.9344 7.26777C11.4656 7.73661 10.8297 8 10.1667 8ZM14.3333 11.3333C14.3333 10.6703 14.0699 10.0344 13.6011 9.56557C13.1323 9.09673 12.4964 8.83333 11.8333 8.83333H8.5C7.83696 8.83333 7.20107 9.09673 6.73223 9.56557C6.26339 10.0344 6 10.6703 6 11.3333V13H7.66667V11.3333C7.66667 11.1123 7.75446 10.9004 7.91074 10.7441C8.06702 10.5878 8.27899 10.5 8.5 10.5H11.8333C12.0543 10.5 12.2663 10.5878 12.4226 10.7441C12.5789 10.9004 12.6667 11.1123 12.6667 11.3333V13H14.3333V11.3333Z" fill="#333333"/>
</svg>
