<svg width="24" height="24" viewBox="0 0 24 24" fill="none" xmlns="http://www.w3.org/2000/svg">
<g clip-path="url(#clip0_1265_11977)">
<path d="M19.732 13.732L13 20.464V24H16.535L23.267 17.268C23.74 16.796 23.999 16.168 23.999 15.5C23.999 14.832 23.739 14.204 23.267 13.732C22.293 12.758 20.707 12.756 19.732 13.732ZM22.56 16.56L16.121 22.999H14V20.877L20.439 14.438C21.005 13.872 21.994 13.872 22.56 14.438C22.843 14.721 22.999 15.098 22.999 15.499C22.999 15.9 22.843 16.276 22.56 16.56ZM21.499 1.999H17.999V0H16.999V2H7V0H6V2H2.5C1.122 2 0 3.122 0 4.5V24H11V23H1V9H23V11.294C23.352 11.416 23.692 11.564 24 11.766V4.5C24 3.122 22.878 2 21.5 2L21.499 1.999ZM1 8V4.5C1 3.673 1.673 3 2.5 3H21.5C22.327 3 23 3.673 23 4.5V8H1Z" fill="white"/>
</g>
<defs>
<clipPath id="clip0_1265_11977">
<rect width="24" height="24" fill="white"/>
</clipPath>
</defs>
</svg>
