<svg width="14" height="14" viewBox="0 0 14 14" fill="none" xmlns="http://www.w3.org/2000/svg">
<g clip-path="url(#clip0_345_2561)">
<path d="M4.375 7.58334C3.85582 7.58334 3.34831 7.42938 2.91663 7.14094C2.48495 6.8525 2.1485 6.44254 1.94982 5.96288C1.75114 5.48322 1.69915 4.95542 1.80044 4.44622C1.90172 3.93702 2.15173 3.46929 2.51884 3.10218C2.88596 2.73507 3.35369 2.48506 3.86289 2.38377C4.37209 2.28249 4.89989 2.33447 5.37954 2.53315C5.8592 2.73183 6.26917 3.06828 6.55761 3.49996C6.84605 3.93164 7 4.43916 7 4.95834C6.99923 5.65429 6.72242 6.32152 6.2303 6.81364C5.73819 7.30575 5.07096 7.58256 4.375 7.58334ZM4.375 3.5C4.08657 3.5 3.80462 3.58553 3.56479 3.74578C3.32497 3.90602 3.13805 4.13378 3.02768 4.40026C2.9173 4.66673 2.88842 4.95995 2.94469 5.24284C3.00096 5.52573 3.13985 5.78558 3.3438 5.98953C3.54775 6.19348 3.8076 6.33238 4.09049 6.38865C4.37338 6.44492 4.6666 6.41604 4.93308 6.30566C5.19956 6.19528 5.42732 6.00836 5.58756 5.76854C5.7478 5.52872 5.83333 5.24677 5.83333 4.95834C5.83333 4.57156 5.67969 4.20063 5.4062 3.92714C5.13271 3.65365 4.76177 3.5 4.375 3.5ZM8.75 13.4167V13.125C8.75 11.9647 8.28906 10.8519 7.46859 10.0314C6.64812 9.21094 5.53532 8.75 4.375 8.75C3.21468 8.75 2.10188 9.21094 1.28141 10.0314C0.460936 10.8519 0 11.9647 0 13.125L0 13.4167C0 13.5714 0.0614582 13.7198 0.170854 13.8291C0.280251 13.9385 0.428624 14 0.583333 14C0.738043 14 0.886416 13.9385 0.995812 13.8291C1.10521 13.7198 1.16667 13.5714 1.16667 13.4167V13.125C1.16667 12.2741 1.50469 11.458 2.10637 10.8564C2.70805 10.2547 3.5241 9.91667 4.375 9.91667C5.2259 9.91667 6.04195 10.2547 6.64363 10.8564C7.24531 11.458 7.58333 12.2741 7.58333 13.125V13.4167C7.58333 13.5714 7.64479 13.7198 7.75419 13.8291C7.86358 13.9385 8.01196 14 8.16667 14C8.32138 14 8.46975 13.9385 8.57915 13.8291C8.68854 13.7198 8.75 13.5714 8.75 13.4167ZM14 10.5C14 9.71173 13.7718 8.94032 13.343 8.27888C12.9142 7.61744 12.3031 7.09426 11.5835 6.77248C10.8639 6.45071 10.0665 6.34409 9.28769 6.46552C8.50883 6.58694 7.78176 6.9312 7.19425 7.45675C7.13636 7.50762 7.08913 7.56945 7.05528 7.63868C7.02142 7.7079 7.00162 7.78315 6.99701 7.86007C6.99241 7.93699 7.00309 8.01406 7.02843 8.08683C7.05378 8.15961 7.0933 8.22663 7.1447 8.28404C7.1961 8.34146 7.25837 8.38811 7.3279 8.42132C7.39744 8.45454 7.47287 8.47364 7.54983 8.47753C7.62679 8.48143 7.70376 8.47003 7.77629 8.44401C7.84883 8.41799 7.91548 8.37785 7.97242 8.32592C8.3921 7.95061 8.91143 7.7048 9.46774 7.61814C10.024 7.53148 10.5935 7.60768 11.1075 7.83755C11.6214 8.06742 12.0579 8.44113 12.3641 8.91357C12.6704 9.38601 12.8333 9.93699 12.8333 10.5C12.8333 10.6547 12.8948 10.8031 13.0042 10.9125C13.1136 11.0219 13.262 11.0833 13.4167 11.0833C13.5714 11.0833 13.7197 11.0219 13.8291 10.9125C13.9385 10.8031 14 10.6547 14 10.5ZM10.2083 5.25C9.68916 5.25 9.18164 5.09605 8.74996 4.80761C8.31828 4.51917 7.98183 4.1092 7.78315 3.62955C7.58447 3.14989 7.53249 2.62209 7.63377 2.11289C7.73506 1.60369 7.98506 1.13596 8.35218 0.768846C8.71929 0.401733 9.18702 0.151726 9.69622 0.0504398C10.2054 -0.0508464 10.7332 0.00113738 11.2129 0.199817C11.6925 0.398498 12.1025 0.73495 12.3909 1.16663C12.6794 1.59831 12.8333 2.10583 12.8333 2.625C12.8326 3.32096 12.5558 3.98819 12.0636 4.4803C11.5715 4.97242 10.9043 5.24923 10.2083 5.25ZM10.2083 1.16667C9.9199 1.16667 9.63795 1.2522 9.39813 1.41244C9.15831 1.57269 8.97139 1.80045 8.86101 2.06692C8.75063 2.3334 8.72175 2.62662 8.77802 2.90951C8.83429 3.1924 8.97318 3.45225 9.17714 3.6562C9.38109 3.86015 9.64094 3.99904 9.92383 4.05531C10.2067 4.11158 10.4999 4.0827 10.7664 3.97233C11.0329 3.86195 11.2606 3.67503 11.4209 3.43521C11.5811 3.19539 11.6667 2.91343 11.6667 2.625C11.6667 2.23823 11.513 1.86729 11.2395 1.5938C10.966 1.32031 10.5951 1.16667 10.2083 1.16667Z" fill="#333333"/>
</g>
<defs>
<clipPath id="clip0_345_2561">
<rect width="14" height="14" fill="white"/>
</clipPath>
</defs>
</svg>
