<svg width="18" height="18" viewBox="0 0 18 18" fill="none" xmlns="http://www.w3.org/2000/svg">
<path d="M16.6277 1.36291L15.8403 0.680516C14.933 -0.226839 13.4632 -0.226839 12.5559 0.680516C12.5334 0.703012 11.1461 2.51022 11.1461 2.51022C10.2912 3.41008 10.2912 4.82735 11.1461 5.71971L12.016 6.81453C10.9211 9.29663 9.21891 11.0064 6.81929 12.0262L5.72447 11.1488C4.83211 10.2865 3.40734 10.2865 2.51498 11.1488C2.51498 11.1488 0.707773 12.5361 0.685277 12.5586C-0.222078 13.466 -0.222078 14.9357 0.647783 15.8056L1.39766 16.668C2.26002 17.5303 3.42234 18.0027 4.68214 18.0027C10.4112 18.0027 18 10.4065 18 4.68487C18 3.43257 17.5276 2.26276 16.6277 1.37041V1.36291ZM4.68214 16.4955C3.82727 16.4955 3.0399 16.1805 2.49999 15.6331L1.75011 14.7708C1.44266 14.4633 1.42766 13.9609 1.72011 13.6384C1.72011 13.6384 3.51232 12.2587 3.53482 12.2362C3.84227 11.9287 4.38218 11.9287 4.69713 12.2362C4.71963 12.2587 6.22689 13.466 6.22689 13.466C6.43685 13.6309 6.71431 13.6759 6.96177 13.5784C10.0663 12.3936 12.2934 10.174 13.5757 6.97201C13.6732 6.72455 13.6357 6.43959 13.4632 6.22213C13.4632 6.22213 12.2559 4.70737 12.2409 4.69237C11.9185 4.36992 11.9185 3.85251 12.2409 3.53006C12.2634 3.50756 13.6432 1.71535 13.6432 1.71535C13.9656 1.4229 14.4681 1.4304 14.813 1.77534L15.6004 2.45773C16.1778 3.03514 16.5002 3.82251 16.5002 4.67737C16.5002 9.89654 9.17391 16.4955 4.68214 16.4955Z" fill="currentColor"/>
</svg>
