<svg width="32" height="32" viewBox="0 0 32 32" fill="none" xmlns="http://www.w3.org/2000/svg">
<g clip-path="url(#clip0_449_3553)">
<path d="M24 16C24 16.736 23.4027 17.3333 22.6667 17.3333C21.9307 17.3333 21.3333 16.736 21.3333 16C21.3333 15.264 21.9307 14.6667 22.6667 14.6667C23.4027 14.6667 24 15.264 24 16ZM9.33332 6.66667C10.0693 6.66667 10.6666 6.07067 10.6666 5.33333C10.6666 3.86267 11.8626 2.66667 13.3333 2.66667C14.804 2.66667 16 3.86267 16 5.33333C16 6.07067 16.5973 6.66667 17.3333 6.66667C18.0693 6.66667 18.6667 6.07067 18.6667 5.33333C18.6667 2.392 16.2747 0 13.3333 0C10.392 0 7.99998 2.392 7.99998 5.33333C7.99998 6.07067 8.59731 6.66667 9.33332 6.66667ZM32 17.3333V20C32 21.4747 31.0027 22.372 29.9093 22.6053C29.028 24.8107 27.4133 26.6733 25.3333 27.8773V28C25.3333 30.2053 23.5387 32 21.3333 32C19.5947 32 18.112 30.8853 17.5613 29.3333H14.4373C13.8866 30.8853 12.404 32 10.6653 32C8.45998 32 6.66532 30.2053 6.66532 28V27.8947C3.15198 25.8693 1.08931 22.0587 1.35465 17.96C1.43865 16.656 1.76798 15.4173 2.29465 14.2853C0.938648 13.644 -0.00268555 12.264 -0.00268555 10.6667C-0.00268555 8.46133 1.79198 6.66667 3.99731 6.66667C4.73331 6.66667 5.33065 7.26267 5.33065 8C5.33065 8.73733 4.73331 9.33333 3.99731 9.33333C3.26131 9.33333 2.66398 9.93067 2.66398 10.6667C2.66398 11.3213 3.13865 11.8667 3.76132 11.9787C5.78932 9.548 8.89865 8 12.352 8H19.5026C20.48 6.02933 22.3053 4.65067 24.7387 4.072C25.5267 3.88667 26.3427 4.068 26.98 4.57067C27.6267 5.08267 27.9987 5.848 27.9987 6.672V11.6253C28.8093 12.5467 29.4573 13.6 29.908 14.728C31.0027 14.9613 32 15.8587 32 17.3333ZM29.3333 17.3333H28.9413C28.352 17.3333 27.832 16.9453 27.664 16.38C27.2987 15.1533 26.624 14.012 25.7133 13.0773C25.4693 12.828 25.3333 12.4933 25.3333 12.1467V6.672C24.0333 6.98133 22.3133 7.77867 21.648 9.78533C21.46 10.3493 20.9107 10.7373 20.328 10.6973C20.2373 10.6933 12.3546 10.668 12.3546 10.668C7.95065 10.668 4.28798 13.9467 4.01731 18.1333C3.80398 21.4253 5.59198 24.4693 8.57331 25.8867C9.03865 26.108 9.33332 26.5773 9.33332 27.0907V28.0013C9.33332 28.7373 9.93198 29.3347 10.6666 29.3347C11.4013 29.3347 12 28.7373 12 28.0013C12 27.2653 12.5973 26.668 13.3333 26.668H18.6667C19.4027 26.668 20 27.264 20 28.0013C20 28.7387 20.5987 29.3347 21.3333 29.3347C22.068 29.3347 22.6667 28.7373 22.6667 28.0013V27.076C22.6667 26.5627 22.9613 26.0947 23.4253 25.8733C25.4813 24.892 27.0253 23.0987 27.664 20.956C27.832 20.3907 28.352 20.0027 28.9413 20.0027H29.3333V17.336V17.3333Z" fill="white"/>
</g>
<defs>
<clipPath id="clip0_449_3553">
<rect width="32" height="32" fill="white"/>
</clipPath>
</defs>
</svg>
