<svg width="70" height="70" viewBox="0 0 70 70" fill="none" xmlns="http://www.w3.org/2000/svg">
<mask id="path-1-inside-1_1981_1706" fill="white">
<path d="M0 12C0 5.37258 5.37258 0 12 0H58C64.6274 0 70 5.37258 70 12V58C70 64.6274 64.6274 70 58 70H12C5.37258 70 0 64.6274 0 58V12Z"/>
</mask>
<path d="M0 12C0 5.37258 5.37258 0 12 0H58C64.6274 0 70 5.37258 70 12V58C70 64.6274 64.6274 70 58 70H12C5.37258 70 0 64.6274 0 58V12Z" fill="white"/>
<path d="M0 0H70H0ZM70 70H0H70ZM0 70V0V70ZM58 0C65.1797 0 71 5.8203 71 13V57C71 64.1797 65.1797 70 58 70C64.0751 70 69 64.6274 69 58V12C69 5.37258 64.0751 0 58 0Z" fill="#EFEFEF" mask="url(#path-1-inside-1_1981_1706)"/>
<path d="M32.2019 33.5597H34.8019C37.6819 33.5597 39.277 32.316 39.5873 29.8286C39.8976 27.3412 38.6127 26.0975 35.7327 26.0975H33.1327L32.2019 33.5597ZM30.1819 49.7542H22.3419L26.0749 19.8261H38.5549C41.9416 19.8261 44.4194 20.6993 45.9882 22.4458C47.5837 24.1923 48.1834 26.6532 47.7873 29.8286C47.3912 33.004 46.1776 35.4649 44.1464 37.2114C42.1419 38.9578 39.4463 39.8311 36.0596 39.8311H31.4196L30.1819 49.7542Z" fill="#ED423F"/>
</svg>
