<svg width="20" height="20" viewBox="0 0 20 20" fill="none" xmlns="http://www.w3.org/2000/svg">
<g clip-path="url(#clip0_121_1531)">
<path d="M0.833339 20.0001C1.05433 20 1.26626 19.9122 1.42251 19.7559L6.93834 14.2401L7.97834 15.3167C8.7622 16.1451 9.84255 16.6287 10.9825 16.6617C11.3625 16.6629 11.7399 16.5989 12.0983 16.4726C12.6521 16.2819 13.1386 15.9346 13.4989 15.4727C13.8591 15.0109 14.0774 14.4544 14.1275 13.8709C14.2179 13.0258 14.1553 12.1713 13.9425 11.3484L13.7642 10.4801C13.7304 10.3412 13.7329 10.196 13.7714 10.0584C13.8099 9.92075 13.8832 9.79535 13.9842 9.69422L15.3067 8.37089C15.3588 8.31852 15.4294 8.28862 15.5033 8.28756C15.5293 8.28273 15.5561 8.28524 15.5806 8.29482C15.6052 8.30439 15.6267 8.32063 15.6425 8.34172C16.0611 8.7856 16.6242 9.06569 17.2307 9.13168C17.8373 9.19766 18.4474 9.04521 18.9517 8.70173C19.2475 8.4908 19.4939 8.21791 19.6735 7.90206C19.8532 7.58622 19.9618 7.23501 19.9919 6.87289C20.022 6.51078 19.9727 6.14646 19.8476 5.80531C19.7225 5.46416 19.5245 5.15439 19.2675 4.89756L15.1667 0.795058C14.7456 0.363475 14.1862 0.0936283 13.5863 0.032696C12.9865 -0.0282362 12.3843 0.123624 11.885 0.461725C11.5891 0.672585 11.3427 0.945423 11.1629 1.26123C10.9832 1.57705 10.8745 1.92824 10.8443 2.29036C10.8142 2.65248 10.8634 3.01682 10.9884 3.358C11.1134 3.69918 11.3113 4.009 11.5683 4.26589L11.6317 4.32922C11.6794 4.3773 11.7062 4.44231 11.7062 4.51006C11.7062 4.57781 11.6794 4.64281 11.6317 4.69089L10.2983 6.02422C10.1961 6.12629 10.069 6.20001 9.92961 6.23814C9.79023 6.27627 9.64334 6.27751 9.50334 6.24172L8.82251 6.06756C7.98505 5.84884 7.11499 5.78307 6.25417 5.87339C5.64364 5.93662 5.06391 6.17308 4.58332 6.5549C4.10273 6.93671 3.74131 7.44797 3.54167 8.02839C3.32381 8.62485 3.28085 9.27114 3.41785 9.89118C3.55485 10.5112 3.86611 11.0793 4.31501 11.5284L5.78001 13.0451L0.244172 18.5776C0.127664 18.6941 0.0483257 18.8426 0.016186 19.0042C-0.0159536 19.1658 0.000548861 19.3334 0.0636072 19.4856C0.126666 19.6379 0.233449 19.768 0.370457 19.8596C0.507465 19.9511 0.668547 20 0.833339 20.0001ZM5.11251 8.58339C5.20641 8.29949 5.3806 8.0489 5.61399 7.86195C5.84738 7.675 6.12995 7.55972 6.42751 7.53006C6.61936 7.51009 6.81212 7.50008 7.00501 7.50006C7.47777 7.50008 7.94857 7.56086 8.40584 7.68089L9.09167 7.85589C9.51185 7.9622 9.95241 7.95782 10.3704 7.84317C10.7884 7.72852 11.1695 7.50753 11.4767 7.20172L12.81 5.86839C13.1698 5.50755 13.3718 5.01878 13.3718 4.50922C13.3718 3.99967 13.1698 3.5109 12.81 3.15006L12.7467 3.08672C12.6604 3.00064 12.594 2.89668 12.5523 2.78217C12.5106 2.66766 12.4944 2.54539 12.5051 2.42398C12.5157 2.30256 12.5529 2.18496 12.6139 2.07946C12.675 1.97397 12.7584 1.88314 12.8583 1.81339C13.0362 1.70575 13.2457 1.66272 13.4515 1.69156C13.6574 1.7204 13.847 1.81935 13.9883 1.97172L18.0917 6.07506C18.178 6.16114 18.2443 6.2651 18.286 6.37961C18.3278 6.49412 18.3439 6.61639 18.3333 6.73781C18.3226 6.85922 18.2855 6.97682 18.2244 7.08232C18.1634 7.18782 18.08 7.27864 17.98 7.34839C17.8003 7.45751 17.5881 7.50056 17.38 7.47014C17.172 7.43972 16.981 7.33773 16.84 7.18172C16.6685 7.00494 16.4634 6.8643 16.2367 6.76812C16.01 6.67193 15.7663 6.62216 15.52 6.62172C15.0005 6.62409 14.5023 6.82851 14.1308 7.19172L12.8092 8.51422C12.5091 8.81454 12.2904 9.18635 12.1737 9.59458C12.0571 10.0028 12.0464 10.434 12.1425 10.8476L12.325 11.7292C12.4932 12.3721 12.5442 13.0399 12.4758 13.7009C12.4559 13.9704 12.3572 14.2282 12.192 14.4421C12.0268 14.6561 11.8024 14.8168 11.5467 14.9042C11.1204 15.0163 10.6711 15.0053 10.2507 14.8726C9.83041 14.7399 9.45629 14.4908 9.17167 14.1542L5.50501 10.3626C5.27637 10.1345 5.11788 9.84576 5.04832 9.53043C4.97875 9.2151 5.00103 8.88645 5.11251 8.58339Z" fill="#333333"/>
</g>
<defs>
<clipPath id="clip0_121_1531">
<rect width="20" height="20" fill="white"/>
</clipPath>
</defs>
</svg>
