<svg width="19" height="19" viewBox="0 0 19 19" fill="none" xmlns="http://www.w3.org/2000/svg">
<path d="M17.0303 8.30005H11.0303V2.30005C11.0303 1.90222 10.8722 1.52069 10.5909 1.23939C10.3096 0.958084 9.9281 0.800049 9.53027 0.800049C9.13245 0.800049 8.75092 0.958084 8.46961 1.23939C8.18831 1.52069 8.03027 1.90222 8.03027 2.30005V8.30005H2.03027C1.63245 8.30005 1.25092 8.45808 0.969614 8.73939C0.688309 9.02069 0.530273 9.40222 0.530273 9.80005C0.530273 10.1979 0.688309 10.5794 0.969614 10.8607C1.25092 11.142 1.63245 11.3 2.03027 11.3H8.03027V17.3C8.03027 17.6979 8.18831 18.0794 8.46961 18.3607C8.75092 18.642 9.13245 18.8 9.53027 18.8C9.9281 18.8 10.3096 18.642 10.5909 18.3607C10.8722 18.0794 11.0303 17.6979 11.0303 17.3V11.3H17.0303C17.4281 11.3 17.8096 11.142 18.0909 10.8607C18.3722 10.5794 18.5303 10.1979 18.5303 9.80005C18.5303 9.40222 18.3722 9.02069 18.0909 8.73939C17.8096 8.45808 17.4281 8.30005 17.0303 8.30005Z" fill="currentColor"/>
</svg>
