<svg width="24" height="24" viewBox="0 0 24 24" fill="none" xmlns="http://www.w3.org/2000/svg">
<path d="M14.2958 9.88079L9.7058 5.29079C9.51844 5.10454 9.26498 5 9.0008 5C8.73661 5 8.48316 5.10454 8.2958 5.29079C8.20207 5.38376 8.12768 5.49436 8.07691 5.61622C8.02614 5.73808 8 5.86878 8 6.00079C8 6.1328 8.02614 6.26351 8.07691 6.38537C8.12768 6.50723 8.20207 6.61783 8.2958 6.71079L12.8958 11.2908C12.9895 11.3838 13.0639 11.4944 13.1147 11.6162C13.1655 11.7381 13.1916 11.8688 13.1916 12.0008C13.1916 12.1328 13.1655 12.2635 13.1147 12.3854C13.0639 12.5072 12.9895 12.6178 12.8958 12.7108L8.2958 17.2908C8.10749 17.4778 8.00118 17.7319 8.00024 17.9973C7.9993 18.2626 8.10382 18.5175 8.2908 18.7058C8.47778 18.8941 8.7319 19.0004 8.99726 19.0014C9.26263 19.0023 9.5175 18.8978 9.7058 18.7108L14.2958 14.1208C14.8576 13.5583 15.1732 12.7958 15.1732 12.0008C15.1732 11.2058 14.8576 10.4433 14.2958 9.88079Z" fill="#555555"/>
</svg>
