<svg width="18" height="17" viewBox="0 0 18 17" fill="none" xmlns="http://www.w3.org/2000/svg">
<path d="M18 5.25075C18 6.04875 17.808 6.9045 17.4285 7.79475C17.307 8.07975 17.0303 8.2515 16.7385 8.2515C16.6403 8.2515 16.5405 8.232 16.4445 8.19075C16.0627 8.02875 15.8858 7.58775 16.0485 7.20675C16.3477 6.50325 16.5 5.8455 16.5 5.25075C16.5 3.21825 14.9543 1.50075 13.125 1.50075C11.4488 1.50075 10.494 2.1795 9.8505 2.77125L6.9825 5.433C6.71775 5.6985 6.65475 6.14475 6.86025 6.4305C6.9945 6.61725 7.19175 6.72975 7.4145 6.74775C7.63575 6.768 7.85025 6.687 8.0055 6.53025L11.1353 3.534C11.4323 3.24825 11.9085 3.258 12.1957 3.55725C12.4823 3.8565 12.4717 4.33125 12.1725 4.61775L11.244 5.5065L14.8043 8.631C15.6383 9.363 15.8438 10.5923 15.282 11.49C14.9362 12.042 14.3715 12.4132 13.7333 12.507C13.6898 12.513 13.647 12.5182 13.6035 12.522C13.6005 12.9082 13.4977 13.2907 13.287 13.6283C12.9412 14.1802 12.3765 14.5515 11.7382 14.6452C11.5995 14.6647 11.4615 14.673 11.3235 14.6663C11.283 14.9528 11.1855 15.2317 11.0273 15.4845C10.6815 16.0365 10.1243 16.5247 9.15825 16.5247C8.628 16.5247 8.1135 16.3335 7.71 15.9788L5.382 13.8907C2.92575 11.6707 0 8.3715 0 5.25075C0 2.35575 2.187 0.00074999 4.875 0.00074999C5.4945 0.00074999 6.09975 0.12675 6.67275 0.37575C7.053 0.54075 7.22775 0.9825 7.06275 1.362C6.89775 1.7415 6.456 1.9155 6.0765 1.752C5.6925 1.5855 5.28825 1.5015 4.87425 1.5015C3.045 1.5015 1.49925 3.219 1.49925 5.2515C1.49925 7.257 3.234 9.92925 6.3855 12.777L8.706 14.8575C8.85375 14.9872 9.0585 15.0472 9.261 15.018C9.4665 14.988 9.64275 14.8717 9.756 14.6895C9.9285 14.4127 9.843 14.0017 9.56025 13.7542L7.155 11.4675C6.85575 11.1825 6.843 10.7085 7.12725 10.4078C7.41225 10.1078 7.88625 10.095 8.187 10.3785L10.9785 13.014C11.1128 13.131 11.3205 13.1925 11.52 13.161C11.7255 13.131 11.9018 13.014 12.015 12.8325C12.1875 12.5557 12.102 12.1448 11.8193 11.8965L9.14925 9.47925C8.84325 9.2025 8.8185 8.72925 9.0945 8.4225C9.36975 8.11575 9.843 8.08875 10.1512 8.36325L12.9578 10.8608C13.1077 10.9928 13.3133 11.0543 13.515 11.0228C13.7205 10.9928 13.8968 10.8758 14.01 10.6943C14.1825 10.4175 14.097 10.0065 13.8143 9.75825L10.1558 6.5475L9.05325 7.60275C8.598 8.05875 7.95525 8.29575 7.29225 8.24325C6.63375 8.19 6.0315 7.84875 5.6415 7.3065C5.00775 6.426 5.136 5.15625 5.94 4.35225L8.83125 1.66875C9.61275 0.951 10.9042 0 13.1235 0C15.8115 0 17.9985 2.355 17.9985 5.25L18 5.25075Z" fill="black"/>
</svg>
