<svg width="24" height="24" viewBox="0 0 24 24" fill="none" xmlns="http://www.w3.org/2000/svg">
<g clip-path="url(#clip0_779_1516)">
<path d="M23.707 22.293L20.167 18.753C20.691 17.962 21 17.017 21 16C21 13.243 18.757 11 16 11C13.243 11 11 13.243 11 16C11 18.757 13.243 21 16 21C17.017 21 17.962 20.691 18.753 20.167L22.293 23.707C22.488 23.902 22.744 24 23 24C23.256 24 23.512 23.902 23.707 23.707C24.098 23.316 24.098 22.684 23.707 22.293ZM13 16C13 14.346 14.346 13 16 13C17.654 13 19 14.346 19 16C19 17.654 17.654 19 16 19C14.346 19 13 17.654 13 16ZM15 6C15 2.691 12.309 0 9.00002 0C5.69102 0 3.00002 2.691 3.00002 6C3.00002 9.309 5.69102 12 9.00002 12C12.309 12 15 9.309 15 6ZM9.00002 10C6.79402 10 5.00002 8.206 5.00002 6C5.00002 3.794 6.79402 2 9.00002 2C11.206 2 13 3.794 13 6C13 8.206 11.206 10 9.00002 10ZM8.99202 14.938C9.06002 15.486 8.67202 15.985 8.12302 16.054C4.63202 16.49 1.99902 19.475 1.99902 23C1.99902 23.552 1.55102 24 0.999023 24C0.447023 24 -0.000976562 23.552 -0.000976562 23C-0.000976562 18.469 3.38502 14.63 7.87502 14.07C8.41702 14.001 8.92202 14.39 8.99102 14.939L8.99202 14.938Z" fill="currentColor"/>
</g>
<defs>
<clipPath id="clip0_779_1516">
<rect width="24" height="24" fill="white"/>
</clipPath>
</defs>
</svg>
