<svg width="20" height="20" viewBox="0 0 20 20" fill="none" xmlns="http://www.w3.org/2000/svg">
<g clip-path="url(#clip0_808_1493)">
<path d="M15.265 12.265L19.39 8.14003C19.5835 7.94656 19.737 7.71687 19.8418 7.46408C19.9465 7.21128 20.0004 6.94033 20.0004 6.66669C20.0004 6.39306 19.9465 6.12211 19.8418 5.86931C19.737 5.61651 19.5835 5.38682 19.39 5.19336L15.265 1.06836L14.0833 2.25003L17.6667 5.83336H2.58333C1.91508 5.81791 1.26795 6.06797 0.783732 6.52876C0.299511 6.98956 0.0176844 7.6235 0 8.29169L0 17.5417C0.0176844 18.2099 0.299511 18.8438 0.783732 19.3046C1.26795 19.7654 1.91508 20.0155 2.58333 20H18.3333V18.3334H2.58333C2.35712 18.3485 2.13403 18.2739 1.96244 18.1258C1.79085 17.9776 1.68458 17.7677 1.66667 17.5417V8.29169C1.68458 8.06567 1.79085 7.85582 1.96244 7.70763C2.13403 7.55944 2.35712 7.48485 2.58333 7.50003H17.6725L14.0892 11.0834L15.265 12.265Z" fill="currentColor"/>
</g>
<defs>
<clipPath id="clip0_808_1493">
<rect width="20" height="20" fill="white"/>
</clipPath>
</defs>
</svg>
